<svg width="25" height="22" viewBox="0 0 25 22" fill="none" xmlns="http://www.w3.org/2000/svg">
<path d="M23.0677 10.7656C23.724 11 24.1927 11.6094 24.1927 12.3125V17.4688C24.1927 18.125 23.8177 18.7344 23.2552 19.0156L18.5677 21.3594C18.099 21.5938 17.5365 21.5938 17.0209 21.3594L12.1927 18.9219L7.31774 21.3594C6.84899 21.5938 6.28649 21.5938 5.77087 21.3594L1.08337 19.0156C0.520868 18.7344 0.192743 18.125 0.192743 17.4688V12.3125C0.192743 11.6094 0.614618 11 1.27087 10.7656L5.77087 9.03125V3.96875C5.77087 3.26562 6.23962 2.65625 6.89587 2.375L11.5834 0.640625C11.9584 0.5 12.3802 0.5 12.7552 0.640625L17.4427 2.375C18.099 2.65625 18.5677 3.26562 18.5677 3.96875V9.03125L23.0677 10.7656ZM16.974 9.07812V5.65625L12.9896 7.39062V10.5781L16.974 9.07812ZM7.41149 3.92188L12.1927 5.89062L16.974 3.92188L12.1927 2.09375L7.41149 3.92188ZM11.349 17.5625V14L7.36462 15.8281V19.5312L11.349 17.5625ZM11.349 12.3125V12.2656L6.56774 10.4844L1.78649 12.2656V12.3125L6.56774 14.2344L11.349 12.3125ZM22.599 17.5625V14L18.6146 15.8281V19.5312L22.599 17.5625ZM22.599 12.3125V12.2656L17.8177 10.4844L13.0365 12.2656V12.3125L17.8177 14.2344L22.599 12.3125Z" fill="#4993DD"/>
</svg>
