<svg width="25" height="24" viewBox="0 0 25 24" fill="none" xmlns="http://www.w3.org/2000/svg">
<path d="M11.3959 0.328125C11.9115 0.140625 12.474 0.140625 12.9427 0.328125L22.6927 3.98438C23.5834 4.3125 24.1459 5.15625 24.1459 6.09375V16.6406C24.1459 17.4844 23.6771 18.2812 22.9271 18.6562L13.1771 23.5312C12.5209 23.8594 11.8177 23.8594 11.1615 23.5312L1.41149 18.6562C0.661493 18.2812 0.192743 17.4844 0.192743 16.6406V6.09375C0.192743 5.15625 0.755243 4.3125 1.64587 3.98438L11.3959 0.328125ZM12.1927 3.23438L3.19274 6.60938V6.65625L12.1927 10.3125L21.1927 6.65625V6.60938L12.1927 3.23438ZM13.6927 19.9219L21.1927 16.1719V9.89062L13.6927 12.9375V19.9219Z" fill="#4993DD"/>
</svg>
