<svg width="31" height="22" viewBox="0 0 31 22" fill="none" xmlns="http://www.w3.org/2000/svg">
<path d="M29.3021 1.57812C29.8177 1.8125 30.1927 2.375 30.1927 2.9375V17.8438C30.1927 18.6875 29.4427 19.2969 28.6459 19.2969C28.5052 19.2969 28.3177 19.2969 28.1771 19.25C26.724 18.7812 25.2709 18.5938 23.8177 18.5938C18.0521 18.5938 12.2865 21.5 6.52087 21.5C4.69274 21.5 2.86462 21.2188 1.03649 20.4688C0.520868 20.2344 0.192743 19.6719 0.192743 19.1094V4.20312C0.192743 3.35938 0.895868 2.70312 1.69274 2.70312C1.83337 2.70312 2.02087 2.75 2.16149 2.79688C3.61462 3.26562 5.06774 3.45312 6.52087 3.45312C12.2865 3.45312 18.0521 0.5 23.8177 0.5C25.6459 0.5 27.474 0.828125 29.3021 1.57812ZM2.44274 5.23438V8.04688C3.89587 8.04688 5.06774 7.01562 5.34899 5.65625C4.36462 5.5625 3.38024 5.46875 2.44274 5.23438ZM2.44274 18.5938C3.38024 18.9219 4.36462 19.1562 5.39587 19.2031C5.34899 17.6094 4.03649 16.3438 2.44274 16.3438V18.5938ZM15.1927 15.5C17.2552 15.5 18.9427 13.5312 18.9427 11C18.9427 8.51562 17.2552 6.5 15.1927 6.5C13.0834 6.5 11.4427 8.51562 11.4427 11C11.4427 13.5312 13.0834 15.5 15.1927 15.5ZM27.9427 16.8125V14.1406C26.6771 14.2812 25.6459 15.2188 25.3646 16.4375C26.2552 16.4844 27.099 16.625 27.9427 16.8125ZM27.9427 5.75V3.45312C27.099 3.17188 26.2084 2.98438 25.3177 2.89062C25.3646 4.34375 26.4896 5.5625 27.9427 5.75Z" fill="#4993DD"/>
</svg>
